# xmcd
#
# Track frame offsets: 
#        150
#        18707
#        36917
#        69660
#        98297
#        129295
#
# Disc length: 1992 seconds
#
# Revision: 2
# Processed by: cddbd v1.5PL3 Copyright (c) Steve Scherf et al.
# Submitted via: ExactAudioCopy v0.95a3
#
DISCID=4507c606
DTITLE=McLachlan, Sarah - Sweet Surrender
DYEAR=1998
DGENRE=Rock
TTITLE0=Sweet Surrender (Tom Lord-Alge Mix)
TTITLE1=Sweet Surrender (Album Mix)
TTITLE2=Sweet Surrender (Roni Size Vocal Mix)
TTITLE3=Sweet Surrender (Roni Size Dub Mix)
TTITLE4=Sweet Surrender (Uberzone Vocal Mix)
TTITLE5=Sweet Surrender (Uberzone Vocal Edit)
EXTD=Sweet Surrender CD single\n\nContains exclusive remixes of Sweet 
EXTD=Surrender.\nNot available in stores.\n\n#3093-2\n\nNettwerk Produ
EXTD=ctions\nBox 330-1755 Robson St.\nVancouver, B.C.\nCanada\nV6G 3B7
EXTT0=
EXTT1=
EXTT2=
EXTT3=
EXTT4=
EXTT5=
PLAYORDER=
